<svg width="36" height="36" viewBox="0 0 36 36" fill="none" xmlns="http://www.w3.org/2000/svg">
<g id="ArbitrumNova-c611254c80139fc52eca4577e4d3a837.svg" clip-path="url(#clip0_878_2613)">
<g id="Clip path group">
<mask id="mask0_878_2613" style="mask-type:luminance" maskUnits="userSpaceOnUse" x="0" y="0" width="36" height="36">
<g id="a">
<path id="Vector" d="M0.660156 0.5H35.6602V35.5H0.660156V0.5Z" fill="white"/>
</g>
</mask>
<g mask="url(#mask0_878_2613)">
<g id="Group">
<path id="Vector_2" d="M18.1602 35.5C27.8251 35.5 35.6602 27.665 35.6602 18C35.6602 8.33501 27.8251 0.5 18.1602 0.5C8.49517 0.5 0.660156 8.33501 0.660156 18C0.660156 27.665 8.49517 35.5 18.1602 35.5Z" fill="#F2F5FA"/>
<path id="Vector_3" d="M14.5614 9.68835H12.2775C12.1197 9.68835 11.979 9.78697 11.9249 9.9351L5.92167 26.3923C5.87704 26.5147 5.96769 26.6443 6.09798 26.6443H8.38186C8.53962 26.6443 8.68037 26.5457 8.73449 26.3977L14.7377 9.94031C14.7823 9.8179 14.6917 9.68835 14.5614 9.68835ZM17.3393 16.584C17.2793 16.4196 17.0468 16.4196 16.9867 16.584L15.8026 19.8304C15.7723 19.9134 15.7723 20.0046 15.8026 20.0876L18.1043 26.3975C18.1583 26.5457 18.2992 26.6441 18.457 26.6441H20.7408C20.8712 26.6441 20.9618 26.5146 20.9172 26.3921L17.3393 16.584ZM23.1615 19.7615C23.2215 19.926 23.454 19.926 23.514 19.7615L27.0965 9.94031C27.1412 9.8179 27.0505 9.68835 26.9202 9.68835H24.6363C24.4786 9.68835 24.3378 9.78684 24.2837 9.9351L21.9774 16.2579C21.9471 16.3409 21.9471 16.4319 21.9774 16.5149L23.1615 19.7615ZM18.6583 9.93335C18.6048 9.78622 18.4649 9.68835 18.3085 9.68835H16.0169C15.8592 9.68835 15.7185 9.78684 15.6644 9.93497L9.66129 26.3923C9.61666 26.5147 9.70731 26.6443 9.8376 26.6443H12.1216C12.2793 26.6443 12.4201 26.5458 12.4742 26.3977L17.0704 13.797C17.1006 13.7144 17.2174 13.7144 17.2475 13.797L21.8438 26.3977C21.8978 26.5458 22.0387 26.6443 22.1965 26.6443H24.4805C24.6108 26.6443 24.7014 26.5147 24.6568 26.3924L18.6583 9.93335ZM30.6598 9.68835H28.3757C28.2181 9.68835 28.0772 9.78684 28.0232 9.93497L23.8471 21.3837C23.8168 21.4668 23.8168 21.5578 23.8471 21.6408L25.0313 24.8874C25.0913 25.0519 25.3239 25.0519 25.3838 24.8874L29.5178 13.5542L30.8362 9.94022C30.8808 9.8179 30.7901 9.68835 30.6598 9.68835Z" fill="#EF8220"/>
</g>
</g>
</g>
</g>
<defs>
<clipPath id="clip0_878_2613">
<rect width="35.4375" height="35" fill="white" transform="translate(0.441406 0.5)"/>
</clipPath>
</defs>
</svg>
