<svg width="41" height="40" viewBox="0 0 41 40" fill="none" xmlns="http://www.w3.org/2000/svg">
<g id="Avalanche.svg">
<path id="Vector" d="M20.1602 33.75C27.7541 33.75 33.9102 27.5939 33.9102 20C33.9102 12.4061 27.7541 6.25 20.1602 6.25C12.5662 6.25 6.41016 12.4061 6.41016 20C6.41016 27.5939 12.5662 33.75 20.1602 33.75Z" fill="#E3453D"/>
<path id="Vector_2" d="M24.8022 20.8201C24.4665 20.2234 23.9295 20.2234 23.5938 20.8201L21.4743 24.5662C21.1387 25.1531 21.4168 25.6421 22.0785 25.6421H26.2791C26.9505 25.6421 27.2286 25.1531 26.8929 24.5662L24.8022 20.8201Z" fill="#535353" fill-opacity="0.13"/>
<path id="Vector_3" d="M22.3468 16.409L21.2439 14.4235L20.774 13.5725C20.4384 12.9758 19.9012 12.9758 19.5655 13.5725L13.4277 24.5565C13.092 25.1531 13.3702 25.6324 14.0415 25.6324H15.7486H16.9186H17.12C17.6763 25.6324 18.3668 25.2314 18.6449 24.7326L22.3468 18.1989C22.6153 17.7196 22.6153 16.9078 22.3468 16.409Z" fill="#535353" fill-opacity="0.13"/>
</g>
</svg>
