<svg width="41" height="40" viewBox="0 0 41 40" fill="none" xmlns="http://www.w3.org/2000/svg">
<g id="celo.svg">
<path id="Vector" fill-rule="evenodd" clip-rule="evenodd" d="M16.7227 31C20.8993 31 24.2852 27.6141 24.2852 23.4375C24.2852 19.2609 20.8993 15.875 16.7227 15.875C12.546 15.875 9.16016 19.2609 9.16016 23.4375C9.16016 27.6141 12.546 31 16.7227 31ZM16.7227 33.75C22.4181 33.75 27.0352 29.1329 27.0352 23.4375C27.0352 17.7421 22.4181 13.125 16.7227 13.125C11.0272 13.125 6.41016 17.7421 6.41016 23.4375C6.41016 29.1329 11.0272 33.75 16.7227 33.75Z" fill="#FBCC5C"/>
<path id="Vector_2" fill-rule="evenodd" clip-rule="evenodd" d="M23.5977 24.125C27.7743 24.125 31.1602 20.7391 31.1602 16.5625C31.1602 12.3859 27.7743 9 23.5977 9C19.421 9 16.0352 12.3859 16.0352 16.5625C16.0352 20.7391 19.421 24.125 23.5977 24.125ZM23.5977 26.875C29.2931 26.875 33.9102 22.2579 33.9102 16.5625C33.9102 10.8671 29.2931 6.25 23.5977 6.25C17.9022 6.25 13.2852 10.8671 13.2852 16.5625C13.2852 22.2579 17.9022 26.875 23.5977 26.875Z" fill="#35D07F" fill-opacity="0.85"/>
</g>
</svg>
