<svg width="36" height="36" viewBox="0 0 36 36" fill="none" xmlns="http://www.w3.org/2000/svg">
<g id="fandom.svg" clip-path="url(#clip0_878_2589)">
<path id="Vector" d="M18.1602 35.5C27.8251 35.5 35.6602 27.665 35.6602 18C35.6602 8.33502 27.8251 0.5 18.1602 0.5C8.49517 0.5 0.660156 8.33502 0.660156 18C0.660156 27.665 8.49517 35.5 18.1602 35.5Z" fill="#1969FF"/>
<path id="Vector_2" fill-rule="evenodd" clip-rule="evenodd" d="M17.19 6.95733L11.6346 9.89193C11.2998 10.0688 11.1279 10.3203 11.1032 10.5897H11.1008V10.6272C11.0999 10.6477 11.0999 10.6683 11.1008 10.689V25.2655C11.0998 25.2858 11.0999 25.3104 11.1008 25.3403C11.1092 25.6298 11.2796 25.9205 11.6346 26.1081L17.19 29.0427C17.7344 29.3302 18.5627 29.3302 19.1072 29.0427L24.6625 26.1081C25.0192 25.9198 25.2008 25.631 25.2078 25.3403L25.2082 25.3244V25.3213V10.6782V10.676V10.5897H25.2028C25.1706 10.3232 24.9905 10.0651 24.6625 9.89193L19.1072 6.95733C18.5627 6.66974 17.7344 6.66974 17.19 6.95733ZM11.9752 25.3113L17.19 28.0515C17.5041 28.2193 17.8309 28.3827 18.1486 28.3838C18.4411 28.3848 18.7257 28.2452 19.0134 28.1041L19.069 28.077L24.3337 25.2877V18.819L19.1072 21.5798C18.5627 21.8675 17.7344 21.8675 17.19 21.5798L11.9752 18.8251V25.3113ZM11.9752 16.895L16.9471 14.2686L11.9752 11.6422V16.895ZM19.3501 14.2686L24.3337 11.636V16.9011L19.3501 14.2686ZM18.6989 7.73064L24.2543 10.6652L24.2669 10.6721L24.2756 10.6771L24.2709 10.6798L24.2543 10.689L18.6989 13.6236C18.41 13.7762 17.8873 13.7762 17.5984 13.6236L12.043 10.689L12.0303 10.6821L12.0216 10.6771L12.0263 10.6744L12.043 10.6652L17.5984 7.73064C17.8873 7.57804 18.41 7.57804 18.6989 7.73064ZM18.6989 14.9136L24.2543 17.8482L24.2669 17.8551L24.2756 17.86L24.2709 17.8628L24.2543 17.8719L18.6989 20.8064C18.6642 20.8248 18.6263 20.8409 18.5858 20.8547V14.8653C18.6263 14.8792 18.6642 14.8953 18.6989 14.9136ZM17.7114 14.8653C17.6709 14.8792 17.6329 14.8953 17.5984 14.9136L12.043 17.8482L12.0263 17.8573L12.0216 17.86L12.0303 17.865L12.043 17.8719L17.5984 20.8064C17.6329 20.8248 17.6709 20.8409 17.7114 20.8547V14.8653ZM25.1546 8.05245L24.7021 8.80075L25.0176 8.9912L25.1203 9.05413C25.2075 9.10808 25.2791 9.15399 25.344 9.19781L25.361 9.20927C25.6571 9.41096 25.8191 9.57672 25.9273 9.79363C26.0576 10.0553 26.1233 10.4268 26.1233 10.9919H26.9977V10.9526C26.9914 9.66206 26.6768 9.04169 25.8328 8.47266C25.7538 8.41942 25.6693 8.36526 25.5671 8.30223L25.5078 8.26577L25.1546 8.05245ZM11.6185 27.2109L11.1659 27.9592L10.8128 27.7459L10.7534 27.7093C10.6513 27.6463 10.5667 27.5922 10.4877 27.5389C9.64379 26.9699 9.32905 26.3496 9.32286 25.0589L9.32275 25.0198H10.1972C10.1972 25.5848 10.2629 25.9564 10.3932 26.218C10.5013 26.435 10.6635 26.6007 10.9596 26.8023L10.9765 26.8138C11.0415 26.8576 11.1131 26.9034 11.2002 26.9575L11.303 27.0203L11.6185 27.2109Z" fill="#535353" fill-opacity="0.13"/>
</g>
<defs>
<clipPath id="clip0_878_2589">
<rect width="35" height="35" fill="white" transform="translate(0.660156 0.5)"/>
</clipPath>
</defs>
</svg>
