<svg width="60" height="60" viewBox="0 0 60 60" fill="none" xmlns="http://www.w3.org/2000/svg">
<g id="6336f99e54df1075ff646e5c_brand-your-app-card-icon-darkweb-webflow-ecommerce-template.svg" clip-path="url(#clip0_185_555)">
<g id="Clip path group">
<mask id="mask0_185_555" style="mask-type:luminance" maskUnits="userSpaceOnUse" x="0" y="0" width="60" height="60">
<g id="clip0_3366_13606">
<path id="Vector" d="M60 0H0V60H60V0Z" fill="white"/>
</g>
</mask>
<g mask="url(#mask0_185_555)">
<g id="Group">
<path id="Vector_2" opacity="0.2" d="M30 60C46.5685 60 60 46.5685 60 30C60 13.4315 46.5685 0 30 0C13.4315 0 0 13.4315 0 30C0 46.5685 13.4315 60 30 60Z" fill="#FDB52A"/>
<path id="Vector_3" d="M19.3856 13.6689C16.6798 13.6689 14.4863 15.8624 14.4863 18.5682V20.2013C14.4863 22.9071 16.6798 25.1006 19.3856 25.1006H35.7165C38.4223 25.1006 40.6158 22.9071 40.6158 20.2013C41.5178 20.2013 42.2489 20.9325 42.2489 21.8344V24.8726C42.2489 25.6511 41.6995 26.3214 40.9361 26.474L29.8564 28.69C27.5664 29.148 25.918 31.1587 25.918 33.4941V33.7031C24.9417 34.2678 24.2849 35.3234 24.2849 36.5323V43.0647C24.2849 44.8686 25.7472 46.3309 27.5511 46.3309C29.3549 46.3309 30.8172 44.8686 30.8172 43.0647V36.5323C30.8172 35.3234 30.1604 34.2678 29.1841 33.7031V33.4941C29.1841 32.7156 29.7336 32.0454 30.497 31.8927L41.5767 29.6768C43.8667 29.2188 45.5151 27.208 45.5151 24.8726V21.8344C45.5151 19.1286 43.3216 16.9351 40.6158 16.9351H40.3371C39.6645 15.0323 37.8497 13.6689 35.7165 13.6689H19.3856Z" fill="#FDB52A"/>
</g>
</g>
</g>
</g>
<defs>
<clipPath id="clip0_185_555">
<rect width="60" height="60" fill="white"/>
</clipPath>
</defs>
</svg>
