<svg width="41" height="40" viewBox="0 0 41 40" fill="none" xmlns="http://www.w3.org/2000/svg">
<g id="Gnosis-f9d778d4132f9af78b03db5ce0b2e0aa.svg">
<path id="Vector" d="M31.9328 12.7273L30.8622 13.7978C31.7131 15.136 31.9807 16.8145 31.3975 18.4189C30.4244 21.1433 27.4091 22.5789 24.66 21.6058C24.2702 21.4603 23.9066 21.2902 23.5895 21.0705L20.1597 24.5003L17.1677 21.4836C15.7815 22.4073 14.0055 22.6749 12.3269 22.0916C9.50511 21.0705 8.04619 17.9811 9.06728 15.184C9.21273 14.7462 9.43239 14.3563 9.6753 13.9927L8.38655 12.704L8.14364 13.1171C6.80546 15.3062 6.07673 17.8356 6.07673 20.4378C6.05201 28.1963 12.3764 34.5454 20.1349 34.5454H20.1597C27.9182 34.5454 34.2193 28.2458 34.2426 20.4858C34.2426 17.9069 33.5371 15.3774 32.1989 13.1651L31.9328 12.7273Z" fill="#00A6C4"/>
<path id="Vector_2" d="M11.2586 15.5738C10.8935 16.0596 10.6753 16.6691 10.6753 17.3251C10.6753 18.9062 11.964 20.1949 13.5451 20.1949C14.2026 20.1949 14.8106 19.9752 15.2964 19.5869L11.2586 15.5738Z" fill="#00A6C4"/>
<path id="Vector_3" d="M25.3413 19.3425C25.8039 19.6582 26.3391 19.8284 26.9471 19.8284C28.5282 19.8284 29.8169 18.5396 29.8169 16.9585C29.8169 16.3753 29.6468 15.8153 29.3311 15.3527L25.3413 19.3425Z" fill="#00A6C4"/>
<path id="Vector_4" d="M20.2082 22.3593L8.58203 10.6836L9.04458 10.1978C11.9144 7.1578 15.8301 5.45453 20.0381 5.45453H20.0628C24.3188 5.45453 28.4061 7.27853 31.2512 10.4407L31.689 10.9265L20.2082 22.3593ZM10.4802 10.6836L20.2097 20.4378L29.817 10.8785C27.2381 8.30107 23.7355 6.81598 20.0875 6.81598H20.0628C16.4381 6.81598 13.0577 8.17889 10.4802 10.6836Z" fill="#00A6C4"/>
</g>
</svg>
