<svg width="41" height="40" viewBox="0 0 41 40" fill="none" xmlns="http://www.w3.org/2000/svg">
<g id="Harmony-79dde015c9a98e109330a3a664f0abf0.svg" clip-path="url(#clip0_878_2665)">
<path id="Vector" d="M20.8398 40C31.8855 40 40.8398 31.0457 40.8398 20C40.8398 8.95432 31.8855 0 20.8398 0C9.79416 0 0.839844 8.95432 0.839844 20C0.839844 31.0457 9.79416 40 20.8398 40Z" fill="url(#paint0_linear_878_2665)"/>
<g id="Clip path group">
<mask id="mask0_878_2665" style="mask-type:luminance" maskUnits="userSpaceOnUse" x="9" y="8" width="24" height="24">
<g id="clip0_2492_24647">
<path id="Vector_2" d="M32.6758 8H9.00342V31.608H32.6758V8Z" fill="white"/>
</g>
</mask>
<g mask="url(#mask0_878_2665)">
<g id="Group">
<path id="Vector_3" d="M27.5692 8C26.2171 7.99895 24.9198 8.5344 23.9621 9.48888C23.0045 10.4434 22.4647 11.7388 22.4612 13.0909V18.7354C21.9351 18.771 21.3973 18.7933 20.8397 18.7933C20.282 18.7933 19.7468 18.8157 19.2181 18.8472V13.0909C19.1965 11.7506 18.649 10.4723 17.6935 9.53208C16.7381 8.59184 15.4513 8.06488 14.1108 8.06488C12.7702 8.06488 11.4834 8.59184 10.528 9.53208C9.57246 10.4723 9.02494 11.7506 9.00342 13.0909V26.5815C9.02494 27.9219 9.57246 29.2001 10.528 30.1403C11.4834 31.0806 12.7702 31.6076 14.1108 31.6076C15.4513 31.6076 16.7381 31.0806 17.6935 30.1403C18.649 29.2001 19.1965 27.9219 19.2181 26.5815V20.937C19.7441 20.9015 20.282 20.8791 20.8397 20.8791C21.3973 20.8791 21.9325 20.8568 22.4612 20.8252V26.5815C22.4827 27.9219 23.0302 29.2001 23.9857 30.1403C24.9412 31.0806 26.228 31.6076 27.5685 31.6076C28.909 31.6076 30.1958 31.0806 31.1513 30.1403C32.1068 29.2001 32.6544 27.9219 32.6758 26.5815V13.0909C32.6724 11.739 32.1327 10.4438 31.1753 9.48936C30.218 8.53496 28.921 7.99931 27.5692 8ZM14.1101 10.0858C14.9081 10.0854 15.6736 10.4017 16.2386 10.965C16.8037 11.5284 17.1223 12.293 17.1244 13.0909V19.0682C15.6301 19.2847 14.1709 19.6973 12.7845 20.2952C12.1837 20.5589 11.6182 20.8964 11.101 21.3V13.0909C11.1031 12.2938 11.4209 11.5301 11.9849 10.9669C12.5489 10.4037 13.313 10.0869 14.1101 10.0858ZM17.1244 26.5815C17.1244 27.381 16.8068 28.1477 16.2415 28.713C15.6762 29.2782 14.9095 29.5958 14.1101 29.5958C13.3106 29.5958 12.544 29.2782 11.9786 28.713C11.4133 28.1477 11.0958 27.381 11.0958 26.5815V25.2282C11.0958 24.0328 12.0427 22.9005 13.6301 22.1956C14.7485 21.713 15.9221 21.3698 17.1244 21.1737V26.5815ZM27.5692 29.5866C26.7713 29.587 26.0057 29.2708 25.4406 28.7074C24.8755 28.144 24.5569 27.3795 24.5549 26.5815V20.6042C26.0492 20.3878 27.5084 19.9752 28.8949 19.3772C29.4956 19.1136 30.061 18.7761 30.5782 18.3725V26.5815C30.5761 27.3786 30.2583 28.1423 29.6944 28.7055C29.1304 29.2688 28.3662 29.5856 27.5692 29.5866ZM28.0492 17.469C26.9307 17.9515 25.7571 18.2947 24.5549 18.4908V13.0909C24.5549 12.2914 24.8725 11.5247 25.4377 10.9594C26.003 10.3942 26.7697 10.0766 27.5692 10.0766C28.3686 10.0766 29.1353 10.3942 29.7006 10.9594C30.2659 11.5247 30.5835 12.2914 30.5835 13.0909V14.4442C30.5835 15.6344 29.6365 16.7667 28.0492 17.469Z" fill="#535353" fill-opacity="0.13"/>
</g>
</g>
</g>
</g>
<defs>
<linearGradient id="paint0_linear_878_2665" x1="3.37317" y1="37.0198" x2="38.1738" y2="2.21988" gradientUnits="userSpaceOnUse">
<stop stop-color="#00AEE9"/>
<stop offset="1" stop-color="#69FABD"/>
</linearGradient>
<clipPath id="clip0_878_2665">
<rect width="40" height="40" fill="white" transform="translate(0.839844)"/>
</clipPath>
</defs>
</svg>
