<svg width="41" height="40" viewBox="0 0 41 40" fill="none" xmlns="http://www.w3.org/2000/svg">
<g id="iotex-15c9b105129c9229e198c2340c164d36.svg" clip-path="url(#clip0_878_2676)">
<path id="path1160" opacity="0.98" d="M20.8398 40C31.8855 40 40.8398 31.0457 40.8398 20C40.8398 8.9543 31.8855 0 20.8398 0C9.79415 0 0.839844 8.9543 0.839844 20C0.839844 31.0457 9.79415 40 20.8398 40Z" fill="#161F26"/>
<g id="g1039">
<path id="polygon991" d="M21.2505 8.55499V14.0631L26.0324 11.3129L21.2505 8.55499Z" fill="url(#paint0_linear_878_2676)"/>
<path id="polygon993" opacity="0.9" d="M26.0327 11.3129V16.8211L30.8147 14.0631L26.0327 11.3129Z" fill="url(#paint1_linear_878_2676)"/>
<path id="polygon995" opacity="0.8" d="M21.2505 14.0631V19.5712L26.0324 16.821L21.2505 14.0631Z" fill="url(#paint2_linear_878_2676)"/>
<path id="polygon997" opacity="0.8" d="M26.0327 16.821V22.3292L30.8147 19.5712L26.0327 16.821Z" fill="url(#paint3_linear_878_2676)"/>
<path id="polygon999" opacity="0.8" d="M21.2505 19.5712V25.0794L26.0324 22.3292L21.2505 19.5712Z" fill="url(#paint4_linear_878_2676)"/>
<path id="polygon1001" d="M26.0327 22.3292V27.8373L30.8147 25.0794L26.0327 22.3292Z" fill="url(#paint5_linear_878_2676)"/>
<path id="polygon1003" opacity="0.4" d="M8.89014 13.8777V19.3858L13.6721 16.6279L8.89014 13.8777Z" fill="url(#paint6_linear_878_2676)"/>
<path id="polygon1005" opacity="0.2" d="M14.9233 15.9249V21.4331L19.6976 18.6829L14.9233 15.9249Z" fill="url(#paint7_linear_878_2676)"/>
<path id="polygon1007" opacity="0.3" d="M11.3774 19.409V24.9171L16.1594 22.1592L11.3774 19.409Z" fill="url(#paint8_linear_878_2676)"/>
<path id="polygon1009" opacity="0.9" d="M14.5298 23.5652V29.0733L19.304 26.3154L14.5298 23.5652Z" fill="url(#paint9_linear_878_2676)"/>
<path id="polygon1011" opacity="0.7" d="M21.2119 25.9369V31.445L25.9861 28.6871L21.2119 25.9369Z" fill="url(#paint10_linear_878_2676)"/>
<path id="polygon1013" opacity="0.9" d="M15.7192 13.2056V18.7138L20.4935 15.9636L15.7192 13.2056Z" fill="url(#paint11_linear_878_2676)"/>
<path id="polygon1015" opacity="0.8" d="M21.2507 8.55499V14.0631L16.4688 11.3129L21.2507 8.55499Z" fill="url(#paint12_linear_878_2676)"/>
<path id="polygon1017" opacity="0.6" d="M15.7194 10.8958V16.4039L10.9375 13.646L15.7194 10.8958Z" fill="url(#paint13_linear_878_2676)"/>
<path id="polygon1019" opacity="0.6" d="M20.5012 13.6228V19.1309L15.7192 16.373L20.5012 13.6228Z" fill="url(#paint14_linear_878_2676)"/>
<path id="polygon1021" opacity="0.95" d="M14.9006 15.9249V21.4331L10.1187 18.6829L14.9006 15.9249Z" fill="url(#paint15_linear_878_2676)"/>
<path id="polygon1023" opacity="0.6" d="M21.2508 19.5712V25.0794L16.4766 22.3292L21.2508 19.5712Z" fill="url(#paint16_linear_878_2676)"/>
<path id="polygon1025" opacity="0.55" d="M11.3777 20.8536V26.3618L6.5957 23.6038L11.3777 20.8536Z" fill="url(#paint17_linear_878_2676)"/>
<path id="polygon1027" d="M30.8147 14.0631V19.5712L26.0327 16.821L30.8147 14.0631Z" fill="url(#paint18_linear_878_2676)"/>
<path id="polygon1029" opacity="0.95" d="M26.0324 16.821V22.3292L21.2505 19.5712L26.0324 16.821Z" fill="url(#paint19_linear_878_2676)"/>
<path id="polygon1031" opacity="0.9" d="M30.8147 19.5712V25.0794L26.0327 22.3292L30.8147 19.5712Z" fill="url(#paint20_linear_878_2676)"/>
<path id="polygon1033" opacity="0.7" d="M26.0324 22.3292V27.8373L21.2505 25.0794L26.0324 22.3292Z" fill="url(#paint21_linear_878_2676)"/>
<path id="polygon1035" opacity="0.4" d="M20.1921 24.6236V30.1317L15.4102 27.3815L20.1921 24.6236Z" fill="url(#paint22_linear_878_2676)"/>
<path id="polygon1037" d="M26.0324 11.3129V16.8211L21.2505 14.0631L26.0324 11.3129Z" fill="url(#paint23_linear_878_2676)"/>
</g>
</g>
<defs>
<linearGradient id="paint0_linear_878_2676" x1="8.65076" y1="4.03285" x2="37.5813" y2="16.6221" gradientUnits="userSpaceOnUse">
<stop stop-color="#00DC9C"/>
<stop offset="1" stop-color="#00D3DC"/>
</linearGradient>
<linearGradient id="paint1_linear_878_2676" x1="8.65394" y1="4.02791" x2="37.5845" y2="16.6171" gradientUnits="userSpaceOnUse">
<stop stop-color="#00DC9C"/>
<stop offset="1" stop-color="#00D3DC"/>
</linearGradient>
<linearGradient id="paint2_linear_878_2676" x1="6.12238" y1="8.07958" x2="35.053" y2="20.6688" gradientUnits="userSpaceOnUse">
<stop stop-color="#00DC9C"/>
<stop offset="1" stop-color="#00D3DC"/>
</linearGradient>
<linearGradient id="paint3_linear_878_2676" x1="6.12315" y1="8.07465" x2="35.0537" y2="20.6639" gradientUnits="userSpaceOnUse">
<stop stop-color="#00DC9C"/>
<stop offset="1" stop-color="#00D3DC"/>
</linearGradient>
<linearGradient id="paint4_linear_878_2676" x1="3.57198" y1="12.115" x2="32.5026" y2="24.7042" gradientUnits="userSpaceOnUse">
<stop stop-color="#00DC9C"/>
<stop offset="1" stop-color="#00D3DC"/>
</linearGradient>
<linearGradient id="paint5_linear_878_2676" x1="3.57299" y1="12.1101" x2="32.5036" y2="24.6993" gradientUnits="userSpaceOnUse">
<stop stop-color="#00DC9C"/>
<stop offset="1" stop-color="#00D3DC"/>
</linearGradient>
<linearGradient id="paint6_linear_878_2676" x1="3.77087" y1="13.6716" x2="32.7015" y2="26.2608" gradientUnits="userSpaceOnUse">
<stop stop-color="#00DC9C"/>
<stop offset="1" stop-color="#00D3DC"/>
</linearGradient>
<linearGradient id="paint7_linear_878_2676" x1="5.19844" y1="13.0639" x2="34.14" y2="25.6173" gradientUnits="userSpaceOnUse">
<stop stop-color="#00DC9C"/>
<stop offset="1" stop-color="#00D3DC"/>
</linearGradient>
<linearGradient id="paint8_linear_878_2676" x1="0.700164" y1="15.9925" x2="29.6308" y2="28.5817" gradientUnits="userSpaceOnUse">
<stop stop-color="#00DC9C"/>
<stop offset="1" stop-color="#00D3DC"/>
</linearGradient>
<linearGradient id="paint9_linear_878_2676" x1="0.315627" y1="18.1111" x2="29.2572" y2="30.6645" gradientUnits="userSpaceOnUse">
<stop stop-color="#00DC9C"/>
<stop offset="1" stop-color="#00D3DC"/>
</linearGradient>
<linearGradient id="paint10_linear_878_2676" x1="0.473935" y1="16.7157" x2="29.4155" y2="29.2691" gradientUnits="userSpaceOnUse">
<stop stop-color="#00DC9C"/>
<stop offset="1" stop-color="#00D3DC"/>
</linearGradient>
<linearGradient id="paint11_linear_878_2676" x1="4.99576" y1="9.76939" x2="33.9373" y2="22.3227" gradientUnits="userSpaceOnUse">
<stop stop-color="#00DC9C"/>
<stop offset="1" stop-color="#00D3DC"/>
</linearGradient>
<linearGradient id="paint12_linear_878_2676" x1="8.49313" y1="3.94706" x2="37.4237" y2="16.5363" gradientUnits="userSpaceOnUse">
<stop stop-color="#00DC9C"/>
<stop offset="1" stop-color="#00D3DC"/>
</linearGradient>
<linearGradient id="paint13_linear_878_2676" x1="6.19987" y1="8.15523" x2="35.1304" y2="20.7444" gradientUnits="userSpaceOnUse">
<stop stop-color="#00DC9C"/>
<stop offset="1" stop-color="#00D3DC"/>
</linearGradient>
<linearGradient id="paint14_linear_878_2676" x1="5.90302" y1="7.95232" x2="34.8336" y2="20.5415" gradientUnits="userSpaceOnUse">
<stop stop-color="#00DC9C"/>
<stop offset="1" stop-color="#00D3DC"/>
</linearGradient>
<linearGradient id="paint15_linear_878_2676" x1="4.17798" y1="12.4906" x2="33.1086" y2="25.0798" gradientUnits="userSpaceOnUse">
<stop stop-color="#00DC9C"/>
<stop offset="1" stop-color="#00D3DC"/>
</linearGradient>
<linearGradient id="paint16_linear_878_2676" x1="3.42421" y1="12.0348" x2="32.3657" y2="24.5881" gradientUnits="userSpaceOnUse">
<stop stop-color="#00DC9C"/>
<stop offset="1" stop-color="#00D3DC"/>
</linearGradient>
<linearGradient id="paint17_linear_878_2676" x1="1.70638" y1="18.024" x2="30.637" y2="30.6132" gradientUnits="userSpaceOnUse">
<stop stop-color="#00DC9C"/>
<stop offset="1" stop-color="#00D3DC"/>
</linearGradient>
<linearGradient id="paint18_linear_878_2676" x1="8.49843" y1="3.93811" x2="37.429" y2="16.5273" gradientUnits="userSpaceOnUse">
<stop stop-color="#00DC9C"/>
<stop offset="1" stop-color="#00D3DC"/>
</linearGradient>
<linearGradient id="paint19_linear_878_2676" x1="5.95718" y1="7.98417" x2="34.8878" y2="20.5734" gradientUnits="userSpaceOnUse">
<stop stop-color="#00DC9C"/>
<stop offset="1" stop-color="#00D3DC"/>
</linearGradient>
<linearGradient id="paint20_linear_878_2676" x1="5.97062" y1="7.98486" x2="34.9012" y2="20.5741" gradientUnits="userSpaceOnUse">
<stop stop-color="#00DC9C"/>
<stop offset="1" stop-color="#00D3DC"/>
</linearGradient>
<linearGradient id="paint21_linear_878_2676" x1="3.42549" y1="12.0309" x2="32.3561" y2="24.6201" gradientUnits="userSpaceOnUse">
<stop stop-color="#00DC9C"/>
<stop offset="1" stop-color="#00D3DC"/>
</linearGradient>
<linearGradient id="paint22_linear_878_2676" x1="1.13179" y1="16.3785" x2="30.0624" y2="28.9677" gradientUnits="userSpaceOnUse">
<stop stop-color="#00DC9C"/>
<stop offset="1" stop-color="#00D3DC"/>
</linearGradient>
<linearGradient id="paint23_linear_878_2676" x1="8.5078" y1="3.94872" x2="37.4384" y2="16.5379" gradientUnits="userSpaceOnUse">
<stop stop-color="#00DC9C"/>
<stop offset="1" stop-color="#00D3DC"/>
</linearGradient>
<clipPath id="clip0_878_2676">
<rect width="40" height="40" fill="white" transform="translate(0.839844)"/>
</clipPath>
</defs>
</svg>
