<svg width="41" height="40" viewBox="0 0 41 40" fill="none" xmlns="http://www.w3.org/2000/svg">
<g id="Moonbeam-25d832a3bf62d67237ae412d32aa53e3.svg">
<path id="Vector" d="M24.5648 18.2616C25.9701 18.2616 26.6226 19.4308 26.6226 20.8924C26.6226 22.3538 25.9701 23.5403 24.5648 23.5403C23.1092 23.5403 22.4735 22.285 22.4735 20.8924C22.4735 19.4996 23.1092 18.2616 24.5648 18.2616ZM20.2148 16.4735V28.75H22.557V24.5031H22.9921C23.4438 25.122 24.1298 25.5347 25.3177 25.5347C27.5762 25.5347 28.9648 23.5918 28.9648 20.8924C28.9648 18.2273 27.5929 16.25 25.3177 16.25C24.113 16.25 23.3768 16.6798 22.9084 17.2816H22.4735V16.4735H20.2148Z" fill="#535353" fill-opacity="0.13"/>
<path id="Vector_2" d="M15.8398 16.875C17.2206 16.875 18.3398 15.7557 18.3398 14.375C18.3398 12.9943 17.2206 11.875 15.8398 11.875C14.4591 11.875 13.3398 12.9943 13.3398 14.375C13.3398 15.7557 14.4591 16.875 15.8398 16.875Z" fill="#535353" fill-opacity="0.13"/>
<path id="Vector_3" d="M23.7781 6.25C18.2129 6.25 13.7021 10.7615 13.7021 16.326C13.7021 16.3334 13.7021 16.3399 13.7021 16.3473L13.7031 16.3631C13.717 16.6254 13.9357 16.8311 14.199 16.8311H33.3574C33.6206 16.8311 33.8393 16.6263 33.8532 16.3631L33.8542 16.3473C33.8542 16.3399 33.8542 16.3334 33.8542 16.326C33.8542 10.7615 29.3426 6.25 23.7781 6.25Z" fill="#53CBC8"/>
<path id="Vector_4" d="M7.03174 27.5773C7.03174 27.9155 6.75741 28.1908 6.41821 28.1908C6.07994 28.1908 5.80469 27.9165 5.80469 27.5773C5.80469 27.239 6.07901 26.9638 6.41821 26.9638C6.75741 26.9638 7.03174 27.2381 7.03174 27.5773Z" fill="#E1147B"/>
<path id="Vector_5" d="M32.6881 24.1846H12.1301C11.6732 24.1846 11.3822 24.673 11.5991 25.0762C11.6028 25.0826 11.6055 25.0892 11.6092 25.0956C11.714 25.2912 11.9188 25.4117 12.1403 25.4117H32.6769C32.8984 25.4117 33.1032 25.2912 33.208 25.0956C33.2117 25.0892 33.2144 25.0826 33.2181 25.0762C33.436 24.673 33.1449 24.1846 32.6881 24.1846Z" fill="#E1147B"/>
<path id="Vector_6" d="M35.4205 18.6256H12.1304C11.7829 18.6256 11.5095 18.9176 11.5272 19.2642C11.5272 19.2707 11.5281 19.2772 11.5281 19.2836C11.5447 19.6024 11.8107 19.8518 12.1314 19.8518H35.4196C35.7394 19.8518 36.0054 19.6024 36.023 19.2836C36.023 19.2772 36.0239 19.2707 36.0239 19.2642C36.0415 18.9176 35.7672 18.6256 35.4205 18.6256Z" fill="#E1147B"/>
<path id="Vector_7" d="M26.6533 32.5229H16.1575C15.5199 32.5229 15.3188 33.3802 15.8878 33.6675C15.9008 33.674 15.9138 33.6805 15.9258 33.6869C16.0092 33.7287 16.1019 33.75 16.1955 33.75H26.6143C26.708 33.75 26.8006 33.7287 26.884 33.6869C26.897 33.6805 26.91 33.674 26.922 33.6675C27.492 33.3802 27.2909 32.5229 26.6533 32.5229Z" fill="#E1147B"/>
<path id="Vector_8" d="M33.0664 29.743H22.5706C21.933 29.743 21.7318 30.6003 22.3009 30.8876C22.3139 30.8941 22.3268 30.9006 22.3389 30.9071C22.4223 30.9488 22.515 30.9701 22.6086 30.9701H33.0274C33.1211 30.9701 33.2138 30.9488 33.2972 30.9071C33.3102 30.9006 33.3231 30.8941 33.3352 30.8876C33.9042 30.6003 33.704 29.743 33.0664 29.743Z" fill="#E1147B"/>
<path id="Vector_9" d="M18.7532 27.9972C18.7476 27.9906 18.7412 27.9842 18.7355 27.9786C18.376 27.594 18.6513 26.9638 19.1785 26.9638H36.2138C36.7411 26.9638 37.0163 27.5931 36.6568 27.9786C36.6512 27.9851 36.6447 27.9915 36.6392 27.9972C36.5243 28.1194 36.3639 28.1899 36.1962 28.1899H19.1962C19.0284 28.1899 18.8681 28.1194 18.7532 27.9972Z" fill="#E1147B"/>
<path id="Vector_10" d="M8.61043 26.9638H16.7448C17.3824 26.9638 17.5835 27.8211 17.0145 28.1084C17.0015 28.1148 16.9885 28.1214 16.9765 28.1278C16.8931 28.1695 16.8004 28.1908 16.7068 28.1908H8.64935C8.55575 28.1908 8.46307 28.1695 8.37966 28.1278C8.36668 28.1214 8.3537 28.1148 8.34166 28.1084C7.77168 27.8211 7.9728 26.9638 8.61043 26.9638Z" fill="#E1147B"/>
<path id="Vector_11" d="M10.5547 19.2381C10.5547 19.5764 10.2803 19.8517 9.94116 19.8517C9.60288 19.8517 9.32764 19.5773 9.32764 19.2381C9.32764 18.8998 9.60196 18.6246 9.94116 18.6246C10.2803 18.6255 10.5547 18.8998 10.5547 19.2381Z" fill="#E1147B"/>
<path id="Vector_12" d="M25.0109 22.1838C25.0128 22.1773 25.0146 22.1708 25.0164 22.1643C25.1202 21.7816 24.8292 21.4043 24.4326 21.4043H7.3946C6.99794 21.4043 6.70693 21.7806 6.81073 22.1643C6.81258 22.1708 6.81444 22.1773 6.81628 22.1838C6.88765 22.4479 7.12676 22.6314 7.39924 22.6314H24.4261C24.7004 22.6314 24.9386 22.4479 25.0109 22.1838Z" fill="#E1147B"/>
<path id="Vector_13" d="M5.8169 22.0178C5.8169 22.3561 5.54257 22.6314 5.20337 22.6314C4.8651 22.6314 4.58984 22.357 4.58984 22.0178C4.58984 21.6796 4.86417 21.4043 5.20337 21.4043C5.54257 21.4053 5.8169 21.6796 5.8169 22.0178Z" fill="#E1147B"/>
<path id="Vector_14" d="M10.5547 24.7976C10.5547 25.1358 10.2803 25.4111 9.94116 25.4111C9.60288 25.4111 9.32764 25.1367 9.32764 24.7976C9.32764 24.4593 9.60196 24.184 9.94116 24.184C10.2803 24.1849 10.5547 24.4593 10.5547 24.7976Z" fill="#E1147B"/>
<path id="Vector_15" d="M20.9932 30.3565C20.9932 30.6948 20.7189 30.9701 20.3797 30.9701C20.0414 30.9701 19.7661 30.6958 19.7661 30.3565C19.7661 30.0183 20.0405 29.743 20.3797 29.743C20.7189 29.743 20.9932 30.0173 20.9932 30.3565Z" fill="#E1147B"/>
<path id="Vector_16" d="M14.5801 33.1365C14.5801 33.4748 14.3058 33.75 13.9666 33.75C13.6283 33.75 13.353 33.4757 13.353 33.1365C13.353 32.7981 13.6274 32.5229 13.9666 32.5229C14.3058 32.5229 14.5801 32.7981 14.5801 33.1365Z" fill="#E1147B"/>
</g>
</svg>
