<svg width="41" height="40" viewBox="0 0 41 40" fill="none" xmlns="http://www.w3.org/2000/svg">
<g id="Near-e8cc26c0bc24c373a56bf9a568323677.svg">
<path id="Vector" d="M11.207 32.5C12.0118 32.5 12.8166 32.1465 13.37 31.4899L32.8368 8.86364C32.2834 8.00505 31.378 7.5 30.4222 7.5C29.6174 7.5 28.8126 7.85354 28.2593 8.4596L8.69189 31.0354C9.19491 31.9445 10.1506 32.5 11.207 32.5Z" fill="url(#paint0_linear_878_2635)"/>
<path id="Vector_2" d="M11.207 32.5C11.6598 32.5 12.1125 32.399 12.5149 32.197V13.2575L27.6558 31.4899C28.209 32.1465 29.0138 32.5 29.869 32.5H30.4727C32.032 32.5 33.3398 31.2374 33.3398 29.6212V10.3788C33.2392 8.76263 31.9817 7.5 30.4223 7.5C29.9697 7.5 29.5169 7.60101 29.1145 7.80303V26.7425L13.9737 8.5101C13.4203 7.85354 12.6155 7.5 11.7604 7.5H11.207C9.59739 7.5 8.33984 8.76263 8.33984 10.3788V29.6717C8.33984 31.2374 9.59739 32.5 11.207 32.5Z" fill="#24272A"/>
</g>
<defs>
<linearGradient id="paint0_linear_878_2635" x1="9.17424" y1="31.6831" x2="32.5195" y2="8.43171" gradientUnits="userSpaceOnUse">
<stop offset="0.21" stop-color="#24272A"/>
<stop offset="0.42" stop-color="#24272A" stop-opacity="0"/>
<stop offset="0.59" stop-color="#24272A" stop-opacity="0"/>
<stop offset="0.81" stop-color="#24272A"/>
</linearGradient>
</defs>
</svg>
