<svg width="41" height="40" viewBox="0 0 41 40" fill="none" xmlns="http://www.w3.org/2000/svg">
<g id="Optimism-93c81f37cc48a41a071dc5800fdbe35b.svg">
<path id="Vector" d="M20.8398 36.875C30.1596 36.875 37.7148 29.3198 37.7148 20C37.7148 10.6802 30.1596 3.125 20.8398 3.125C11.52 3.125 3.96484 10.6802 3.96484 20C3.96484 29.3198 11.52 36.875 20.8398 36.875Z" fill="#FF0420"/>
<path id="Vector_2" d="M15.2475 25C14.1348 25 13.2231 24.7407 12.5124 24.2222C11.8111 23.6945 11.4604 22.9445 11.4604 21.9722C11.4604 21.7685 11.4838 21.5185 11.5306 21.2222C11.6522 20.5555 11.8252 19.7546 12.0495 18.8195C12.6854 16.2732 14.3264 15 16.9727 15C17.6927 15 18.3379 15.1204 18.9084 15.3611C19.4787 15.5926 19.9275 15.9445 20.2548 16.4166C20.5821 16.8796 20.7457 17.4352 20.7457 18.0834C20.7457 18.2778 20.7224 18.5232 20.6756 18.8195C20.5354 19.6435 20.367 20.4445 20.1706 21.2222C19.8434 22.4907 19.2776 23.4398 18.4735 24.0695C17.6694 24.6898 16.594 25 15.2475 25ZM15.4439 23C15.9675 23 16.4116 22.8472 16.7764 22.5416C17.1504 22.2361 17.4169 21.7685 17.5758 21.1389C17.7909 20.2685 17.9545 19.5093 18.0667 18.8611C18.1042 18.6666 18.1229 18.4675 18.1229 18.2639C18.1229 17.4213 17.6786 17 16.7904 17C16.2667 17 15.8179 17.1528 15.4439 17.4584C15.0792 17.7639 14.8174 18.2315 14.6584 18.8611C14.4901 19.4815 14.3218 20.2407 14.1534 21.1389C14.1161 21.3241 14.0974 21.5185 14.0974 21.7222C14.0974 22.5741 14.5462 23 15.4439 23Z" fill="#535353" fill-opacity="0.13"/>
<path id="Vector_3" d="M22.1689 24.8611C22.0661 24.8611 21.9866 24.8287 21.9305 24.7639C21.8837 24.6898 21.8697 24.6065 21.8883 24.5139L23.824 15.4861C23.8427 15.3843 23.8942 15.3009 23.9783 15.2361C24.0624 15.1713 24.1513 15.1389 24.2448 15.1389H27.9757C29.0136 15.1389 29.8458 15.3518 30.4723 15.7778C31.1082 16.2037 31.4262 16.8195 31.4262 17.625C31.4262 17.8565 31.3981 18.0972 31.342 18.3472C31.1082 19.412 30.636 20.199 29.9253 20.7084C29.2241 21.2176 28.2609 21.4722 27.0359 21.4722H25.1424L24.4973 24.5139C24.4785 24.6157 24.4271 24.699 24.3429 24.7639C24.2588 24.8287 24.17 24.8611 24.0764 24.8611H22.1689ZM27.1342 19.5556C27.5269 19.5556 27.8682 19.4491 28.1581 19.2361C28.4573 19.0232 28.6536 18.7176 28.7472 18.3195C28.7752 18.162 28.7893 18.0232 28.7893 17.9027C28.7893 17.6343 28.7097 17.4306 28.5508 17.2916C28.3918 17.1436 28.1206 17.0695 27.7373 17.0695H26.0542L25.5212 19.5556H27.1342Z" fill="#535353" fill-opacity="0.13"/>
</g>
</svg>
