<svg width="60" height="60" viewBox="0 0 60 60" fill="none" xmlns="http://www.w3.org/2000/svg">
<g id="6336f99ebf5000112302d359_pick-a-template-card-icon-darkweb-webflow-ecommerce-template.svg" clip-path="url(#clip0_185_541)">
<g id="Clip path group">
<mask id="mask0_185_541" style="mask-type:luminance" maskUnits="userSpaceOnUse" x="0" y="0" width="60" height="60">
<g id="clip0_3366_13605">
<path id="Vector" d="M60 0H0V60H60V0Z" fill="white"/>
</g>
</mask>
<g mask="url(#mask0_185_541)">
<g id="Group">
<path id="Vector_2" opacity="0.13" d="M30 60C46.5685 60 60 46.5685 60 30C60 13.4315 46.5685 0 30 0C13.4315 0 0 13.4315 0 30C0 46.5685 13.4315 60 30 60Z" fill="#3E9AFF"/>
<path id="Vector_3" fill-rule="evenodd" clip-rule="evenodd" d="M13.2812 30.6627C13.5923 29.7876 14.5539 29.3305 15.429 29.6416L28.8733 34.4218C29.6021 34.6809 30.3979 34.6809 31.1267 34.4218L44.5711 29.6416C45.4461 29.3305 46.4077 29.7876 46.7188 30.6627C47.03 31.5377 46.5728 32.4993 45.6978 32.8104L32.2534 37.5906C30.7959 38.1089 29.2042 38.1089 27.7466 37.5907L14.3023 32.8104C13.4272 32.4993 12.9701 31.5377 13.2812 30.6627Z" fill="#3E9AFF"/>
<path id="Vector_4" fill-rule="evenodd" clip-rule="evenodd" d="M13.2812 37.8091C13.5923 36.9341 14.5539 36.4769 15.429 36.7881L28.8733 41.5683C29.6021 41.8274 30.3979 41.8274 31.1267 41.5683L44.5711 36.7881C45.4461 36.4769 46.4077 36.9341 46.7188 37.8091C47.03 38.6842 46.5728 39.6458 45.6978 39.9569L32.2534 44.7371C30.7959 45.2554 29.2042 45.2554 27.7466 44.7371L14.3023 39.9569C13.4272 39.6458 12.9701 38.6842 13.2812 37.8091Z" fill="#3E9AFF"/>
<path id="Vector_5" d="M32.8741 15.3802C31.018 14.7053 28.9835 14.7053 27.1273 15.3802L15.2744 19.6904C12.3226 20.7638 12.3226 24.9384 15.2744 26.0118L27.1273 30.322C28.9835 30.9969 31.018 30.9969 32.8741 30.322L44.727 26.0118C47.6788 24.9384 47.6788 20.7638 44.727 19.6904L32.8741 15.3802Z" fill="#3E9AFF"/>
</g>
</g>
</g>
</g>
<defs>
<clipPath id="clip0_185_541">
<rect width="60" height="60" fill="white"/>
</clipPath>
</defs>
</svg>
