<svg width="32" height="28" viewBox="0 0 32 28" fill="none" xmlns="http://www.w3.org/2000/svg">
<g id="polygon.svg" clip-path="url(#clip0_878_2658)">
<g id="Group">
<path id="Vector" d="M23.7384 8.72087C23.1742 8.39848 22.4488 8.39848 21.804 8.72087L17.2906 11.3806L14.2279 13.0731L9.79508 15.7328C9.23091 16.0552 8.50553 16.0552 7.86076 15.7328L4.39508 13.6373C3.83091 13.3149 3.42792 12.6701 3.42792 11.9447V7.91489C3.42792 7.27012 3.75031 6.62534 4.39508 6.22236L7.86076 4.20743C8.42494 3.88504 9.15031 3.88504 9.79508 4.20743L13.2608 6.30295C13.8249 6.62534 14.2279 7.27012 14.2279 7.99549V10.6552L17.2906 8.88206V6.14176C17.2906 5.49698 16.9682 4.85221 16.3234 4.44922L9.87568 0.661164C9.3115 0.338776 8.58613 0.338776 7.94135 0.661164L1.3324 4.52982C0.687622 4.85221 0.365234 5.49698 0.365234 6.14176V13.7179C0.365234 14.3627 0.687622 15.0074 1.3324 15.4104L7.86076 19.1985C8.42494 19.5209 9.15031 19.5209 9.79508 19.1985L14.2279 16.6194L17.2906 14.8462L21.7234 12.2671C22.2876 11.9447 23.013 11.9447 23.6578 12.2671L27.1234 14.2821C27.6876 14.6044 28.0906 15.2492 28.0906 15.9746V20.0044C28.0906 20.6492 27.7682 21.294 27.1234 21.697L23.7384 23.7119C23.1742 24.0343 22.4488 24.0343 21.804 23.7119L18.3384 21.697C17.7742 21.3746 17.3712 20.7298 17.3712 20.0044V17.4253L14.3085 19.1985V21.8582C14.3085 22.503 14.6309 23.1477 15.2757 23.5507L21.804 27.3388C22.3682 27.6612 23.0936 27.6612 23.7384 27.3388L30.2667 23.5507C30.8309 23.2283 31.2339 22.5836 31.2339 21.8582V14.2015C31.2339 13.5567 30.9115 12.9119 30.2667 12.5089L23.7384 8.72087Z" fill="#8247E5"/>
</g>
</g>
<defs>
<clipPath id="clip0_878_2658">
<rect width="30.9493" height="27" fill="white" transform="translate(0.365234 0.5)"/>
</clipPath>
</defs>
</svg>
