<svg width="60" height="60" viewBox="0 0 60 60" fill="none" xmlns="http://www.w3.org/2000/svg">
<g id="6336f99e9f615c97a0bd0d90_publish-easily-card-icon-darkweb-webflow-ecommerce-template.svg" clip-path="url(#clip0_185_580)">
<g id="Clip path group">
<mask id="mask0_185_580" style="mask-type:luminance" maskUnits="userSpaceOnUse" x="0" y="0" width="60" height="60">
<g id="clip0_3366_13608">
<path id="Vector" d="M60 0H0V60H60V0Z" fill="white"/>
</g>
</mask>
<g mask="url(#mask0_185_580)">
<g id="Group">
<path id="Vector_2" opacity="0.13" d="M30 60C46.5685 60 60 46.5685 60 30C60 13.4315 46.5685 0 30 0C13.4315 0 0 13.4315 0 30C0 46.5685 13.4315 60 30 60Z" fill="#BB4CFF"/>
<path id="Vector_3" d="M16.8422 20.3651C12.7615 20.8102 11.1844 25.9144 14.3028 28.5839L19.3093 32.8397C19.6363 33.1177 20.1041 33.156 20.472 32.935L32.3309 25.8094C33.0704 25.3651 34.0301 25.6044 34.4745 26.3439C34.9188 27.0834 34.6795 28.0431 33.94 28.4874L22.0811 35.613C21.7132 35.834 21.5274 36.2651 21.6193 36.6843L23.0266 43.1028C23.9196 47.1093 29.1668 48.1131 31.4756 44.7191L44.8315 25.0848C47.0802 21.7791 44.423 17.3568 40.4486 17.7903L16.8422 20.3651Z" fill="#BB4CFF"/>
</g>
</g>
</g>
</g>
<defs>
<clipPath id="clip0_185_580">
<rect width="60" height="60" fill="white"/>
</clipPath>
</defs>
</svg>
