<svg width="37" height="37" viewBox="0 0 37 37" fill="none" xmlns="http://www.w3.org/2000/svg">
<g id="transactions-fb4a5424f9b37ee7025cc4aecae5961c.svg" clip-path="url(#clip0_878_1476)">
<g id="Clip path group">
<mask id="mask0_878_1476" style="mask-type:luminance" maskUnits="userSpaceOnUse" x="0" y="0" width="37" height="37">
<g id="clip0_3332_19330">
<path id="Vector" d="M36.6602 0.97998H0.660156V36.98H36.6602V0.97998Z" fill="white"/>
</g>
</mask>
<g mask="url(#mask0_878_1476)">
<g id="Group">
<g id="Mask group">
<mask id="mask1_878_1476" style="mask-type:alpha" maskUnits="userSpaceOnUse" x="13" y="0" width="22" height="37">
<g id="Group_2">
<path id="Vector_2" d="M34.0896 0.97998H13.0039V6.12284H18.1708L18.1584 19.4943V36.98H34.0896V0.97998Z" fill="#D9D9D9"/>
</g>
</mask>
<g mask="url(#mask1_878_1476)">
<g id="Group_3">
<path id="Vector_3" d="M18.5289 35.6941C26.0266 35.6941 32.1047 29.616 32.1047 22.1183C32.1047 14.6206 26.0266 8.54248 18.5289 8.54248C11.0312 8.54248 4.95312 14.6206 4.95312 22.1183C4.95312 29.616 11.0312 35.6941 18.5289 35.6941Z" stroke="#C850C0" stroke-width="1.54286"/>
<path id="Vector_4" d="M18.9414 8.98804V13.4716" stroke="#C850C0" stroke-width="1.54286"/>
<path id="Vector_5" d="M18.9414 4.99121V8.98795" stroke="#C850C0" stroke-width="1.54286"/>
<path id="Vector_6" d="M18.8516 31.0855V35.569" stroke="#C850C0" stroke-width="1.54286"/>
<path id="Vector_7" d="M31.9787 23.3381H27.4951" stroke="#C850C0" stroke-width="1.54286"/>
<path id="Vector_8" d="M28.4323 13.2652L25.3174 16.3802" stroke="#C850C0" stroke-width="1.54286"/>
<path id="Vector_9" d="M31.2059 10.4879L29.0132 12.6806" stroke="#C850C0" stroke-width="1.54286"/>
<path id="Vector_10" d="M33.2142 11.8226L29.6392 8.55861" stroke="#C850C0" stroke-width="1.54286"/>
<path id="Vector_11" d="M27.7341 32.1324L24.6191 29.0174" stroke="#C850C0" stroke-width="1.54286"/>
<path id="Vector_12" d="M19.144 22.5363L23.7602 17.9202" stroke="#C850C0" stroke-width="1.54286"/>
<path id="Vector_13" d="M14.9453 2.26556H22.8691V5.20622H14.9453V2.26556Z" stroke="#C850C0" stroke-width="1.54286"/>
</g>
</g>
</g>
<path id="Vector_14" d="M16.6036 11.0085H8.375" stroke="#C850C0" stroke-width="1.54286"/>
<path id="Vector_15" d="M16.6038 16.1513H3.74658" stroke="#C850C0" stroke-width="1.54286"/>
<path id="Vector_16" d="M16.6035 21.8086H2.71777" stroke="#C850C0" stroke-width="1.54286"/>
<path id="Vector_17" d="M16.6038 26.9514H3.74658" stroke="#C850C0" stroke-width="1.54286"/>
<path id="Vector_18" d="M16.6036 32.6086H8.375" stroke="#C850C0" stroke-width="1.54286"/>
</g>
</g>
</g>
</g>
<defs>
<clipPath id="clip0_878_1476">
<rect width="36" height="36" fill="white" transform="translate(0.660156 0.97998)"/>
</clipPath>
</defs>
</svg>
