<svg width="36" height="37" viewBox="0 0 36 37" fill="none" xmlns="http://www.w3.org/2000/svg">
<g id="validators-c061febdde3d9b0740f8aece13b68905.svg">
<path id="Vector" d="M11.5068 7.34348C11.5068 4.67349 9.34233 2.50903 6.67234 2.50903C4.00235 2.50903 1.83789 4.67349 1.83789 7.34348C1.83789 10.0135 4.00235 12.1779 6.67234 12.1779C9.34233 12.1779 11.5068 10.0135 11.5068 7.34348Z" stroke="#C850C0" stroke-width="1.54286" stroke-miterlimit="10"/>
<path id="Vector_2" d="M34.458 7.34348C34.458 4.67349 32.2935 2.50903 29.6235 2.50903C26.9535 2.50903 24.7891 4.67349 24.7891 7.34348C24.7891 10.0135 26.9535 12.1779 29.6235 12.1779C32.2935 12.1779 34.458 10.0135 34.458 7.34348Z" stroke="#C850C0" stroke-width="1.54286" stroke-miterlimit="10"/>
<path id="Vector_3" d="M34.458 30.0005C34.458 27.3305 32.2935 25.166 29.6235 25.166C26.9535 25.166 24.7891 27.3305 24.7891 30.0005C24.7891 32.6705 26.9535 34.8349 29.6235 34.8349C32.2935 34.8349 34.458 32.6705 34.458 30.0005Z" stroke="#C850C0" stroke-width="1.54286" stroke-miterlimit="10"/>
<path id="Vector_4" d="M11.2119 30.2947C11.2119 27.6247 9.04741 25.4602 6.37742 25.4602C3.70743 25.4602 1.54297 27.6247 1.54297 30.2947C1.54297 32.9647 3.70743 35.1291 6.37742 35.1291C9.04741 35.1291 11.2119 32.9647 11.2119 30.2947Z" stroke="#C850C0" stroke-width="1.54286" stroke-miterlimit="10"/>
<path id="Vector_5" d="M9.3407 5.45142L6.52477 9.45316L4.19141 7.36401" stroke="#C850C0" stroke-width="1.54286" stroke-miterlimit="10"/>
<path id="Vector_6" d="M32.2919 5.45142L29.4759 9.45316L27.1426 7.36401" stroke="#C850C0" stroke-width="1.54286" stroke-miterlimit="10"/>
<path id="Vector_7" d="M32.2919 28.1084L29.4759 32.1102L27.1426 30.021" stroke="#C850C0" stroke-width="1.54286" stroke-miterlimit="10"/>
<path id="Vector_8" d="M9.04578 28.4026L6.22985 32.4044L3.89648 30.3152" stroke="#C850C0" stroke-width="1.54286" stroke-miterlimit="10"/>
<path id="Vector_9" d="M11.3926 22.9031V14.6667L18.1678 11.7758L24.9429 14.6667V22.9031L18.1678 26.1795L11.3926 22.9031Z" stroke="#C850C0" stroke-width="1.54286"/>
<path id="Vector_10" d="M18.1678 17.4582L11.9556 14.4397L18.1678 11.7764L24.3799 14.4397L18.1678 17.4582Z" stroke="#C850C0" stroke-width="1.54286"/>
<path id="Vector_11" d="M18.2441 17.6233V26.1989" stroke="#C850C0" stroke-width="1.54286"/>
<path id="Vector_12" d="M13.6274 23.8657L9.48633 26.9314" stroke="#C850C0" stroke-width="1.54286"/>
<path id="Vector_13" d="M14.1431 13.5801L10.0762 11.0422" stroke="#C850C0" stroke-width="1.54286"/>
<path id="Vector_14" d="M22.3711 23.8657L26.4062 26.7844" stroke="#C850C0" stroke-width="1.54286"/>
<path id="Vector_15" d="M22.1138 13.3228L26.406 10.8949" stroke="#C850C0" stroke-width="1.54286"/>
</g>
</svg>
